<mxfile host="app.diagrams.net" modified="2020-12-17T08:49:57.807Z" agent="5.0 (Windows NT 10.0; Win64; x64) AppleWebKit/537.36 (KHTML, like Gecko) Chrome/87.0.4280.88 Safari/537.36 Edg/87.0.664.60" etag="nVUUZKSV_kl0lk0oXnsd" version="13.10.9" type="github">
  <diagram id="o7ATLaazwTgIDbvBmJSP" name="Page-1">
    <mxGraphModel dx="2770" dy="1125" grid="1" gridSize="10" guides="1" tooltips="1" connect="1" arrows="1" fold="1" page="1" pageScale="1" pageWidth="850" pageHeight="1100" math="0" shadow="0">
      <root>
        <mxCell id="0" />
        <mxCell id="1" parent="0" />
        <mxCell id="GfFz4JVftzistIbiwYEc-1" value="" style="ellipse;html=1;shape=startState;fillColor=#000000;strokeColor=#ff0000;" vertex="1" parent="1">
          <mxGeometry x="380" y="10" width="30" height="30" as="geometry" />
        </mxCell>
        <mxCell id="GfFz4JVftzistIbiwYEc-2" value="" style="edgeStyle=orthogonalEdgeStyle;html=1;verticalAlign=bottom;endArrow=open;endSize=8;strokeColor=#ff0000;" edge="1" source="GfFz4JVftzistIbiwYEc-1" parent="1">
          <mxGeometry relative="1" as="geometry">
            <mxPoint x="395" y="100" as="targetPoint" />
          </mxGeometry>
        </mxCell>
        <mxCell id="GfFz4JVftzistIbiwYEc-3" value="Chọn chức năng&amp;nbsp;&lt;br&gt;&quot;Đăng nhập&quot;" style="rounded=1;whiteSpace=wrap;html=1;arcSize=40;fontColor=#000000;fillColor=#ffffc0;strokeColor=#ff0000;" vertex="1" parent="1">
          <mxGeometry x="335" y="100" width="120" height="40" as="geometry" />
        </mxCell>
        <mxCell id="GfFz4JVftzistIbiwYEc-4" value="" style="edgeStyle=orthogonalEdgeStyle;html=1;verticalAlign=bottom;endArrow=open;endSize=8;strokeColor=#ff0000;" edge="1" source="GfFz4JVftzistIbiwYEc-3" parent="1">
          <mxGeometry relative="1" as="geometry">
            <mxPoint x="395" y="210" as="targetPoint" />
          </mxGeometry>
        </mxCell>
        <mxCell id="GfFz4JVftzistIbiwYEc-5" value="Hiển thị giao diện đăng nhập" style="rounded=1;whiteSpace=wrap;html=1;arcSize=40;fontColor=#000000;fillColor=#ffffc0;strokeColor=#ff0000;" vertex="1" parent="1">
          <mxGeometry x="335" y="210" width="120" height="40" as="geometry" />
        </mxCell>
        <mxCell id="GfFz4JVftzistIbiwYEc-6" value="" style="edgeStyle=orthogonalEdgeStyle;html=1;verticalAlign=bottom;endArrow=open;endSize=8;strokeColor=#ff0000;" edge="1" source="GfFz4JVftzistIbiwYEc-5" parent="1">
          <mxGeometry relative="1" as="geometry">
            <mxPoint x="395" y="320" as="targetPoint" />
          </mxGeometry>
        </mxCell>
        <mxCell id="GfFz4JVftzistIbiwYEc-7" value="Nhập email và&amp;nbsp;&lt;br&gt;mật khẩu" style="rounded=1;whiteSpace=wrap;html=1;arcSize=40;fontColor=#000000;fillColor=#ffffc0;strokeColor=#ff0000;" vertex="1" parent="1">
          <mxGeometry x="335" y="320" width="120" height="40" as="geometry" />
        </mxCell>
        <mxCell id="GfFz4JVftzistIbiwYEc-8" value="" style="edgeStyle=orthogonalEdgeStyle;html=1;verticalAlign=bottom;endArrow=open;endSize=8;strokeColor=#ff0000;" edge="1" source="GfFz4JVftzistIbiwYEc-7" parent="1">
          <mxGeometry relative="1" as="geometry">
            <mxPoint x="395" y="420" as="targetPoint" />
          </mxGeometry>
        </mxCell>
        <mxCell id="GfFz4JVftzistIbiwYEc-9" value="Kiểm tra xem Guest đã đăng nhập các trường bắt buộc" style="rounded=1;whiteSpace=wrap;html=1;arcSize=40;fontColor=#000000;fillColor=#ffffc0;strokeColor=#ff0000;" vertex="1" parent="1">
          <mxGeometry x="335" y="420" width="120" height="40" as="geometry" />
        </mxCell>
        <mxCell id="GfFz4JVftzistIbiwYEc-10" value="" style="edgeStyle=orthogonalEdgeStyle;html=1;verticalAlign=bottom;endArrow=open;endSize=8;strokeColor=#ff0000;" edge="1" source="GfFz4JVftzistIbiwYEc-9" parent="1">
          <mxGeometry relative="1" as="geometry">
            <mxPoint x="395" y="520" as="targetPoint" />
          </mxGeometry>
        </mxCell>
        <mxCell id="GfFz4JVftzistIbiwYEc-12" value="Kiểm tra email và mật khẩu có hợp lệ&amp;nbsp;" style="rounded=1;whiteSpace=wrap;html=1;arcSize=40;fontColor=#000000;fillColor=#ffffc0;strokeColor=#ff0000;" vertex="1" parent="1">
          <mxGeometry x="335" y="590" width="120" height="40" as="geometry" />
        </mxCell>
        <mxCell id="GfFz4JVftzistIbiwYEc-13" value="" style="edgeStyle=orthogonalEdgeStyle;html=1;verticalAlign=bottom;endArrow=open;endSize=8;strokeColor=#ff0000;" edge="1" source="GfFz4JVftzistIbiwYEc-12" parent="1">
          <mxGeometry relative="1" as="geometry">
            <mxPoint x="395" y="690" as="targetPoint" />
          </mxGeometry>
        </mxCell>
        <mxCell id="GfFz4JVftzistIbiwYEc-15" style="edgeStyle=orthogonalEdgeStyle;rounded=0;orthogonalLoop=1;jettySize=auto;html=1;" edge="1" parent="1" source="GfFz4JVftzistIbiwYEc-14" target="GfFz4JVftzistIbiwYEc-12">
          <mxGeometry relative="1" as="geometry" />
        </mxCell>
        <mxCell id="GfFz4JVftzistIbiwYEc-18" style="edgeStyle=orthogonalEdgeStyle;rounded=0;orthogonalLoop=1;jettySize=auto;html=1;entryX=0;entryY=0.5;entryDx=0;entryDy=0;" edge="1" parent="1" source="GfFz4JVftzistIbiwYEc-14" target="GfFz4JVftzistIbiwYEc-16">
          <mxGeometry relative="1" as="geometry" />
        </mxCell>
        <mxCell id="GfFz4JVftzistIbiwYEc-14" value="" style="rhombus;" vertex="1" parent="1">
          <mxGeometry x="380" y="520" width="30" height="30" as="geometry" />
        </mxCell>
        <mxCell id="GfFz4JVftzistIbiwYEc-16" value="Thông báo lỗi..." style="rounded=1;whiteSpace=wrap;html=1;arcSize=40;fontColor=#000000;fillColor=#ffffc0;strokeColor=#ff0000;" vertex="1" parent="1">
          <mxGeometry x="520" y="515" width="120" height="40" as="geometry" />
        </mxCell>
        <mxCell id="GfFz4JVftzistIbiwYEc-17" value="" style="edgeStyle=orthogonalEdgeStyle;html=1;verticalAlign=bottom;endArrow=open;endSize=8;strokeColor=#ff0000;entryX=1;entryY=0.5;entryDx=0;entryDy=0;" edge="1" source="GfFz4JVftzistIbiwYEc-16" parent="1" target="GfFz4JVftzistIbiwYEc-7">
          <mxGeometry relative="1" as="geometry">
            <mxPoint x="580" y="620" as="targetPoint" />
            <Array as="points">
              <mxPoint x="590" y="340" />
            </Array>
          </mxGeometry>
        </mxCell>
        <mxCell id="GfFz4JVftzistIbiwYEc-19" value="Email và mật khẩu..." style="rounded=1;whiteSpace=wrap;html=1;arcSize=40;fontColor=#000000;fillColor=#ffffc0;strokeColor=#ff0000;" vertex="1" parent="1">
          <mxGeometry x="60" y="730" width="120" height="40" as="geometry" />
        </mxCell>
        <mxCell id="GfFz4JVftzistIbiwYEc-20" value="" style="edgeStyle=orthogonalEdgeStyle;html=1;verticalAlign=bottom;endArrow=open;endSize=8;strokeColor=#ff0000;entryX=0;entryY=0.5;entryDx=0;entryDy=0;" edge="1" source="GfFz4JVftzistIbiwYEc-19" parent="1" target="GfFz4JVftzistIbiwYEc-7">
          <mxGeometry relative="1" as="geometry">
            <mxPoint x="395" y="850" as="targetPoint" />
            <Array as="points">
              <mxPoint x="80" y="340" />
            </Array>
          </mxGeometry>
        </mxCell>
        <mxCell id="GfFz4JVftzistIbiwYEc-22" style="edgeStyle=orthogonalEdgeStyle;rounded=0;orthogonalLoop=1;jettySize=auto;html=1;" edge="1" parent="1" source="GfFz4JVftzistIbiwYEc-21" target="GfFz4JVftzistIbiwYEc-19">
          <mxGeometry relative="1" as="geometry" />
        </mxCell>
        <mxCell id="GfFz4JVftzistIbiwYEc-28" style="edgeStyle=orthogonalEdgeStyle;rounded=0;orthogonalLoop=1;jettySize=auto;html=1;entryX=0.5;entryY=0;entryDx=0;entryDy=0;" edge="1" parent="1" source="GfFz4JVftzistIbiwYEc-21" target="GfFz4JVftzistIbiwYEc-24">
          <mxGeometry relative="1" as="geometry" />
        </mxCell>
        <mxCell id="GfFz4JVftzistIbiwYEc-29" style="edgeStyle=orthogonalEdgeStyle;rounded=0;orthogonalLoop=1;jettySize=auto;html=1;entryX=0.5;entryY=0;entryDx=0;entryDy=0;" edge="1" parent="1" source="GfFz4JVftzistIbiwYEc-21" target="GfFz4JVftzistIbiwYEc-26">
          <mxGeometry relative="1" as="geometry" />
        </mxCell>
        <mxCell id="GfFz4JVftzistIbiwYEc-32" style="edgeStyle=orthogonalEdgeStyle;rounded=0;orthogonalLoop=1;jettySize=auto;html=1;" edge="1" parent="1" source="GfFz4JVftzistIbiwYEc-21" target="GfFz4JVftzistIbiwYEc-30">
          <mxGeometry relative="1" as="geometry" />
        </mxCell>
        <mxCell id="GfFz4JVftzistIbiwYEc-21" value="" style="rhombus;" vertex="1" parent="1">
          <mxGeometry x="380" y="690" width="30" height="30" as="geometry" />
        </mxCell>
        <mxCell id="GfFz4JVftzistIbiwYEc-24" value="Guest thành admin hiển thị giao diện dành cho admin" style="rounded=1;whiteSpace=wrap;html=1;arcSize=40;fontColor=#000000;fillColor=#ffffc0;strokeColor=#ff0000;" vertex="1" parent="1">
          <mxGeometry x="490" y="790" width="120" height="50" as="geometry" />
        </mxCell>
        <mxCell id="GfFz4JVftzistIbiwYEc-25" value="" style="edgeStyle=orthogonalEdgeStyle;html=1;verticalAlign=bottom;endArrow=open;endSize=8;strokeColor=#ff0000;entryX=1;entryY=0.5;entryDx=0;entryDy=0;" edge="1" source="GfFz4JVftzistIbiwYEc-24" parent="1" target="GfFz4JVftzistIbiwYEc-33">
          <mxGeometry relative="1" as="geometry">
            <mxPoint x="550" y="850" as="targetPoint" />
            <Array as="points">
              <mxPoint x="550" y="905" />
            </Array>
          </mxGeometry>
        </mxCell>
        <mxCell id="GfFz4JVftzistIbiwYEc-26" value="Hiện thị trang chủ dành cho User nếu Guest đăng nhập thành User" style="rounded=1;whiteSpace=wrap;html=1;arcSize=40;fontColor=#000000;fillColor=#ffffc0;strokeColor=#ff0000;" vertex="1" parent="1">
          <mxGeometry x="335" y="780" width="120" height="60" as="geometry" />
        </mxCell>
        <mxCell id="GfFz4JVftzistIbiwYEc-27" value="" style="edgeStyle=orthogonalEdgeStyle;html=1;verticalAlign=bottom;endArrow=open;endSize=8;strokeColor=#ff0000;entryX=0;entryY=0.5;entryDx=0;entryDy=0;" edge="1" source="GfFz4JVftzistIbiwYEc-26" parent="1" target="GfFz4JVftzistIbiwYEc-33">
          <mxGeometry relative="1" as="geometry">
            <mxPoint x="240" y="850" as="targetPoint" />
            <Array as="points">
              <mxPoint x="395" y="905" />
            </Array>
          </mxGeometry>
        </mxCell>
        <mxCell id="GfFz4JVftzistIbiwYEc-30" value="Nhà phân phối" style="rounded=1;whiteSpace=wrap;html=1;arcSize=40;fontColor=#000000;fillColor=#ffffc0;strokeColor=#ff0000;" vertex="1" parent="1">
          <mxGeometry x="650" y="800" width="120" height="40" as="geometry" />
        </mxCell>
        <mxCell id="GfFz4JVftzistIbiwYEc-31" value="" style="edgeStyle=orthogonalEdgeStyle;html=1;verticalAlign=bottom;endArrow=open;endSize=8;strokeColor=#ff0000;entryX=1;entryY=0.5;entryDx=0;entryDy=0;" edge="1" source="GfFz4JVftzistIbiwYEc-30" parent="1" target="GfFz4JVftzistIbiwYEc-33">
          <mxGeometry relative="1" as="geometry">
            <mxPoint x="700" y="910" as="targetPoint" />
            <Array as="points">
              <mxPoint x="700" y="905" />
            </Array>
          </mxGeometry>
        </mxCell>
        <mxCell id="GfFz4JVftzistIbiwYEc-33" value="" style="ellipse;html=1;shape=endState;fillColor=#000000;strokeColor=#ff0000;" vertex="1" parent="1">
          <mxGeometry x="380" y="890" width="30" height="30" as="geometry" />
        </mxCell>
        <mxCell id="GfFz4JVftzistIbiwYEc-35" value="Có" style="text;html=1;strokeColor=none;fillColor=none;align=center;verticalAlign=middle;whiteSpace=wrap;rounded=0;" vertex="1" parent="1">
          <mxGeometry x="345" y="560" width="65" height="20" as="geometry" />
        </mxCell>
        <mxCell id="GfFz4JVftzistIbiwYEc-36" value="Không" style="text;html=1;strokeColor=none;fillColor=none;align=center;verticalAlign=middle;whiteSpace=wrap;rounded=0;" vertex="1" parent="1">
          <mxGeometry x="425" y="510" width="85" height="20" as="geometry" />
        </mxCell>
        <mxCell id="GfFz4JVftzistIbiwYEc-37" value="Đăng nhập tài khoản User" style="text;html=1;strokeColor=none;fillColor=none;align=center;verticalAlign=middle;whiteSpace=wrap;rounded=0;" vertex="1" parent="1">
          <mxGeometry x="330" y="740" width="65" height="20" as="geometry" />
        </mxCell>
        <mxCell id="GfFz4JVftzistIbiwYEc-38" value="Đăng nhập tài khoản admin" style="text;html=1;strokeColor=none;fillColor=none;align=center;verticalAlign=middle;whiteSpace=wrap;rounded=0;" vertex="1" parent="1">
          <mxGeometry x="480" y="740" width="65" height="20" as="geometry" />
        </mxCell>
        <mxCell id="GfFz4JVftzistIbiwYEc-40" value="Đăng nhập tài khoản nhà phân phối" style="text;html=1;strokeColor=none;fillColor=none;align=center;verticalAlign=middle;whiteSpace=wrap;rounded=0;" vertex="1" parent="1">
          <mxGeometry x="620" y="740" width="90" height="20" as="geometry" />
        </mxCell>
      </root>
    </mxGraphModel>
  </diagram>
</mxfile>
